<svg class="svgstore"><symbol viewBox="0 0 320 512" id="icon-plus"><title>plus</title> <path d="M192 224v-128h-64v128h-128v64h128v128h64v-128h128v-64h-128z"/> </symbol><symbol viewBox="0 0 384 512" id="icon-trashcan"><title>trashcan</title> <path d="M352 64h-128c0 0 0-12.029 0-16 0-8.837-7.163-16-16-16s-16 7.163-16 16c0 8.837 0 16 0 16h-128c-17.673 0-32 14.327-32 32v32c0 17.673 14.327 32 32 32v288c0 17.673 14.327 32 32 32h224c17.673 0 32-14.327 32-32v-288c17.673 0 32-14.327 32-32v-32c0-17.673-14.327-32-32-32zM320 432c0 8.837-7.163 16-16 16h-192c-8.837 0-16-7.163-16-16v-272h32v240c0 8.837 7.163 16 16 16s16-7.163 16-16l0.194-240h31.806v240c0 8.837 7.163 16 16 16s16-7.163 16-16l0.194-240h32l-0.194 240c0 8.837 7.164 16 16 16s16-7.163 16-16v-240h32v272zM352 120c0 4.418-3.582 8-8 8h-272c-4.418 0-8-3.582-8-8v-16c0-4.418 3.582-8 8-8h272c4.418 0 8 3.582 8 8v16z"/> </symbol></svg>